<svg xmlns="http://www.w3.org/2000/svg" viewBox="0 0 1024 1024">
  <defs><linearGradient id="background" x1="0" y1="0" x2="1" y2="1"><stop offset="0" stop-color="#7c5cff"/><stop offset="1" stop-color="#14b8a6"/></linearGradient></defs>
  <rect width="1024" height="1024" rx="224" fill="#111827"/><rect x="72" y="72" width="880" height="880" rx="190" fill="url(#background)"/>
  <path d="M665 296c-53-42-119-64-198-64-125 0-208 62-208 156 0 91 71 127 192 151 87 17 111 35 111 67 0 36-36 59-99 59-73 0-131-25-181-74l-83 100c66 61 155 91 258 91 136 0 218-63 218-165 0-101-77-132-194-155-83-17-109-32-109-64 0-31 32-52 87-52 59 0 112 21 164 61z" fill="#fff"/>
</svg>
